<mxfile host="app.diagrams.net" agent="Mozilla/5.0 (Windows NT 10.0; Win64; x64; rv:134.0) Gecko/20100101 Firefox/134.0" version="26.0.6" pages="3">
  <diagram name="inicio" id="08GzbEzfrhofkP1dRAbf">
    <mxGraphModel dx="1257" dy="671" grid="1" gridSize="10" guides="1" tooltips="1" connect="1" arrows="1" fold="1" page="1" pageScale="1" pageWidth="827" pageHeight="1169" math="0" shadow="0">
      <root>
        <mxCell id="0" />
        <mxCell id="1" parent="0" />
        <mxCell id="AVi5BH4aqNU-QDkcnaI1-1" value="" style="edgeStyle=orthogonalEdgeStyle;rounded=0;orthogonalLoop=1;jettySize=auto;html=1;" edge="1" parent="1" source="AVi5BH4aqNU-QDkcnaI1-2" target="AVi5BH4aqNU-QDkcnaI1-5">
          <mxGeometry relative="1" as="geometry" />
        </mxCell>
        <mxCell id="AVi5BH4aqNU-QDkcnaI1-2" value="INÍCIO" style="ellipse;whiteSpace=wrap;html=1;" vertex="1" parent="1">
          <mxGeometry x="320" y="20" width="110" height="50" as="geometry" />
        </mxCell>
        <mxCell id="AVi5BH4aqNU-QDkcnaI1-3" value="FIM" style="ellipse;whiteSpace=wrap;html=1;" vertex="1" parent="1">
          <mxGeometry x="320" y="520" width="110" height="50" as="geometry" />
        </mxCell>
        <mxCell id="AVi5BH4aqNU-QDkcnaI1-4" value="" style="edgeStyle=orthogonalEdgeStyle;rounded=0;orthogonalLoop=1;jettySize=auto;html=1;" edge="1" parent="1" source="AVi5BH4aqNU-QDkcnaI1-5" target="AVi5BH4aqNU-QDkcnaI1-7">
          <mxGeometry relative="1" as="geometry" />
        </mxCell>
        <mxCell id="AVi5BH4aqNU-QDkcnaI1-5" value="var_Num[8] = {2,40,27,13,45,50,79,99}, i, j, aux" style="rounded=1;whiteSpace=wrap;html=1;" vertex="1" parent="1">
          <mxGeometry x="215" y="130" width="320" height="20" as="geometry" />
        </mxCell>
        <mxCell id="AVi5BH4aqNU-QDkcnaI1-6" value="" style="edgeStyle=orthogonalEdgeStyle;rounded=0;orthogonalLoop=1;jettySize=auto;html=1;" edge="1" parent="1" source="AVi5BH4aqNU-QDkcnaI1-7" target="AVi5BH4aqNU-QDkcnaI1-9">
          <mxGeometry relative="1" as="geometry" />
        </mxCell>
        <UserObject label="vetorOrdenado" id="AVi5BH4aqNU-QDkcnaI1-7">
          <mxCell style="shape=process;whiteSpace=wrap;html=1;backgroundOutline=1;" vertex="1" parent="1">
            <mxGeometry x="315" y="240" width="120" height="60" as="geometry" />
          </mxCell>
        </UserObject>
        <mxCell id="AVi5BH4aqNU-QDkcnaI1-8" value="" style="edgeStyle=orthogonalEdgeStyle;rounded=0;orthogonalLoop=1;jettySize=auto;html=1;" edge="1" parent="1" source="AVi5BH4aqNU-QDkcnaI1-9" target="AVi5BH4aqNU-QDkcnaI1-3">
          <mxGeometry relative="1" as="geometry" />
        </mxCell>
        <UserObject label="vetorOrdenado" id="AVi5BH4aqNU-QDkcnaI1-9">
          <mxCell style="shape=process;whiteSpace=wrap;html=1;backgroundOutline=1;" vertex="1" parent="1">
            <mxGeometry x="315" y="370" width="120" height="60" as="geometry" />
          </mxCell>
        </UserObject>
        <mxCell id="9vVfoLiVDGtTgCtGwroH-1" value="&lt;div align=&quot;left&quot;&gt;&lt;font style=&quot;font-size: 26px;&quot;&gt;PROGRAMA DESAFIO&lt;br&gt;&lt;font&gt;Ordenando os valores de um vetor&lt;/font&gt;&lt;br&gt;&lt;font&gt;- Crie uma variável inteira tipo vetor de nome var_Num com&lt;/font&gt;&lt;br&gt;&lt;font&gt;dimensão de 08 elementos&lt;/font&gt;&lt;br&gt;&lt;font&gt;- Preencha com valores quaisquer entre 0 a 100 (atribua, não use&lt;/font&gt;&lt;br&gt;&lt;font&gt;leia). Não repita os numeros.&lt;/font&gt;&lt;br&gt;&lt;font&gt;- Imprima os valores em ordem crescente (menor para o maior) .&lt;/font&gt;&lt;br&gt;&lt;font&gt;Pode, se quiser , usar um segundo vetor como apoio.&lt;/font&gt;&lt;/font&gt;&lt;/div&gt;" style="text;html=1;align=left;verticalAlign=middle;whiteSpace=wrap;rounded=0;" vertex="1" parent="1">
          <mxGeometry x="28" y="620" width="770" height="510" as="geometry" />
        </mxCell>
      </root>
    </mxGraphModel>
  </diagram>
  <diagram id="UvefE1Snggv2FoTHCCHD" name="vetordDesordenado">
    <mxGraphModel dx="1035" dy="553" grid="1" gridSize="10" guides="1" tooltips="1" connect="1" arrows="1" fold="1" page="1" pageScale="1" pageWidth="827" pageHeight="1169" math="0" shadow="0">
      <root>
        <mxCell id="0" />
        <mxCell id="1" parent="0" />
        <mxCell id="wb6X-ETL48gBASmdtiHG-2" value="" style="edgeStyle=orthogonalEdgeStyle;rounded=0;orthogonalLoop=1;jettySize=auto;html=1;" edge="1" parent="1" source="GYMuQysHL87dJmPd3fLK-1" target="374m7g-0s8PhLGRwO7tB-1">
          <mxGeometry relative="1" as="geometry" />
        </mxCell>
        <mxCell id="GYMuQysHL87dJmPd3fLK-1" value="INÍCIO" style="ellipse;whiteSpace=wrap;html=1;" vertex="1" parent="1">
          <mxGeometry x="359" y="50" width="110" height="50" as="geometry" />
        </mxCell>
        <mxCell id="wb6X-ETL48gBASmdtiHG-3" value="" style="edgeStyle=orthogonalEdgeStyle;rounded=0;orthogonalLoop=1;jettySize=auto;html=1;" edge="1" parent="1" source="374m7g-0s8PhLGRwO7tB-1" target="374m7g-0s8PhLGRwO7tB-2">
          <mxGeometry relative="1" as="geometry" />
        </mxCell>
        <mxCell id="374m7g-0s8PhLGRwO7tB-1" value="i=0; i&amp;lt;=7; i++" style="rounded=1;whiteSpace=wrap;html=1;" vertex="1" parent="1">
          <mxGeometry x="351" y="180" width="126" height="20" as="geometry" />
        </mxCell>
        <mxCell id="wb6X-ETL48gBASmdtiHG-4" value="" style="edgeStyle=orthogonalEdgeStyle;rounded=0;orthogonalLoop=1;jettySize=auto;html=1;" edge="1" parent="1" source="374m7g-0s8PhLGRwO7tB-2" target="wb6X-ETL48gBASmdtiHG-1">
          <mxGeometry relative="1" as="geometry" />
        </mxCell>
        <mxCell id="374m7g-0s8PhLGRwO7tB-2" value="var_Num[i]" style="strokeWidth=2;html=1;shape=mxgraph.flowchart.display;whiteSpace=wrap;" vertex="1" parent="1">
          <mxGeometry x="366" y="260" width="96" height="50" as="geometry" />
        </mxCell>
        <mxCell id="wb6X-ETL48gBASmdtiHG-1" value="FIM" style="ellipse;whiteSpace=wrap;html=1;" vertex="1" parent="1">
          <mxGeometry x="359" y="410" width="110" height="50" as="geometry" />
        </mxCell>
      </root>
    </mxGraphModel>
  </diagram>
  <diagram id="BfERgdWvJZ6esyQh_nNX" name="vetorOrdenado">
    <mxGraphModel dx="733" dy="392" grid="1" gridSize="10" guides="1" tooltips="1" connect="1" arrows="1" fold="1" page="1" pageScale="1" pageWidth="827" pageHeight="1169" math="0" shadow="0">
      <root>
        <mxCell id="0" />
        <mxCell id="1" parent="0" />
        <mxCell id="qM-67pP_POoFyW3F8NgS-1" value="" style="edgeStyle=orthogonalEdgeStyle;rounded=0;orthogonalLoop=1;jettySize=auto;html=1;" edge="1" parent="1" source="qM-67pP_POoFyW3F8NgS-2" target="qM-67pP_POoFyW3F8NgS-4">
          <mxGeometry relative="1" as="geometry" />
        </mxCell>
        <mxCell id="qM-67pP_POoFyW3F8NgS-2" value="INÍCIO" style="ellipse;whiteSpace=wrap;html=1;" vertex="1" parent="1">
          <mxGeometry x="359" y="50" width="110" height="50" as="geometry" />
        </mxCell>
        <mxCell id="qM-67pP_POoFyW3F8NgS-9" value="" style="edgeStyle=orthogonalEdgeStyle;rounded=0;orthogonalLoop=1;jettySize=auto;html=1;" edge="1" parent="1" source="qM-67pP_POoFyW3F8NgS-4" target="qM-67pP_POoFyW3F8NgS-8">
          <mxGeometry relative="1" as="geometry" />
        </mxCell>
        <mxCell id="qM-67pP_POoFyW3F8NgS-4" value="i=0; i&amp;lt;8; i++" style="rounded=1;whiteSpace=wrap;html=1;" vertex="1" parent="1">
          <mxGeometry x="351" y="180" width="126" height="20" as="geometry" />
        </mxCell>
        <mxCell id="qM-67pP_POoFyW3F8NgS-7" value="FIM" style="ellipse;whiteSpace=wrap;html=1;" vertex="1" parent="1">
          <mxGeometry x="359" y="800" width="110" height="50" as="geometry" />
        </mxCell>
        <mxCell id="qM-67pP_POoFyW3F8NgS-11" value="" style="edgeStyle=orthogonalEdgeStyle;rounded=0;orthogonalLoop=1;jettySize=auto;html=1;" edge="1" parent="1" source="qM-67pP_POoFyW3F8NgS-8" target="qM-67pP_POoFyW3F8NgS-10">
          <mxGeometry relative="1" as="geometry" />
        </mxCell>
        <mxCell id="qM-67pP_POoFyW3F8NgS-8" value="j=0; j&amp;lt;7; j++" style="rounded=1;whiteSpace=wrap;html=1;" vertex="1" parent="1">
          <mxGeometry x="351" y="260" width="126" height="20" as="geometry" />
        </mxCell>
        <mxCell id="qM-67pP_POoFyW3F8NgS-13" value="" style="edgeStyle=orthogonalEdgeStyle;rounded=0;orthogonalLoop=1;jettySize=auto;html=1;" edge="1" parent="1" source="qM-67pP_POoFyW3F8NgS-10" target="qM-67pP_POoFyW3F8NgS-12">
          <mxGeometry relative="1" as="geometry" />
        </mxCell>
        <mxCell id="qM-67pP_POoFyW3F8NgS-17" value="" style="edgeStyle=orthogonalEdgeStyle;rounded=0;orthogonalLoop=1;jettySize=auto;html=1;entryX=1;entryY=0.5;entryDx=0;entryDy=0;entryPerimeter=0;" edge="1" parent="1" source="qM-67pP_POoFyW3F8NgS-10" target="qM-67pP_POoFyW3F8NgS-14">
          <mxGeometry relative="1" as="geometry">
            <mxPoint x="710" y="670" as="targetPoint" />
            <Array as="points">
              <mxPoint x="670" y="395" />
              <mxPoint x="670" y="700" />
            </Array>
          </mxGeometry>
        </mxCell>
        <mxCell id="qM-67pP_POoFyW3F8NgS-10" value="var_Num[j] &amp;gt; var_Num[j + 1]" style="strokeWidth=2;html=1;shape=mxgraph.flowchart.decision;whiteSpace=wrap;" vertex="1" parent="1">
          <mxGeometry x="301" y="350" width="226" height="90" as="geometry" />
        </mxCell>
        <mxCell id="qM-67pP_POoFyW3F8NgS-15" value="" style="edgeStyle=orthogonalEdgeStyle;rounded=0;orthogonalLoop=1;jettySize=auto;html=1;" edge="1" parent="1" source="qM-67pP_POoFyW3F8NgS-12" target="qM-67pP_POoFyW3F8NgS-14">
          <mxGeometry relative="1" as="geometry" />
        </mxCell>
        <mxCell id="qM-67pP_POoFyW3F8NgS-12" value="&lt;div align=&quot;center&quot;&gt;aux = var_Num[j]&lt;br&gt;var_Num[j] = var_Num[j + 1]&lt;br&gt;var_Num[j + 1] = aux&lt;/div&gt;" style="rounded=1;whiteSpace=wrap;html=1;align=center;" vertex="1" parent="1">
          <mxGeometry x="323.37" y="510" width="181.25" height="70" as="geometry" />
        </mxCell>
        <mxCell id="qM-67pP_POoFyW3F8NgS-18" value="" style="edgeStyle=orthogonalEdgeStyle;rounded=0;orthogonalLoop=1;jettySize=auto;html=1;" edge="1" parent="1" source="qM-67pP_POoFyW3F8NgS-14" target="qM-67pP_POoFyW3F8NgS-7">
          <mxGeometry relative="1" as="geometry" />
        </mxCell>
        <mxCell id="qM-67pP_POoFyW3F8NgS-14" value="var_Num[i]," style="strokeWidth=2;html=1;shape=mxgraph.flowchart.display;whiteSpace=wrap;" vertex="1" parent="1">
          <mxGeometry x="364" y="670" width="100" height="60" as="geometry" />
        </mxCell>
        <mxCell id="qM-67pP_POoFyW3F8NgS-19" value="F" style="text;html=1;align=center;verticalAlign=middle;whiteSpace=wrap;rounded=0;" vertex="1" parent="1">
          <mxGeometry x="527" y="360" width="60" height="30" as="geometry" />
        </mxCell>
        <mxCell id="qM-67pP_POoFyW3F8NgS-20" value="V" style="text;html=1;align=center;verticalAlign=middle;whiteSpace=wrap;rounded=0;" vertex="1" parent="1">
          <mxGeometry x="409" y="460" width="60" height="30" as="geometry" />
        </mxCell>
      </root>
    </mxGraphModel>
  </diagram>
</mxfile>
